# xmcd
#
# Track frame offsets:
#	183
#	11080
#	25325
#	36610
#	47025
#	59163
#	72580
#	82108
#	94593
#	106630
#
# Disc length: 1576 seconds
#
# Revision: 1
# Processed by: cddbd v1.5PL3 Copyright (c) Steve Scherf et al.
# Submitted via: CDex 1.50Beta5
#
DISCID=8b06260a
DTITLE=Lee Andrews - Teardrops - Best Of Lee Andrews
DYEAR=1900
DGENRE=Rock
TTITLE0=Teardrops
TTITLE1=Try The Impossible
TTITLE2=Just Suppose
TTITLE3=Glad To Be Here
TTITLE4=Bluebird Of Happiness
TTITLE5=Long Lonely Nights
TTITLE6=Bells Of St. Mary
TTITLE7=Lonely Room
TTITLE8=The Fairest
TTITLE9=The Clock
EXTD=
EXTT0=
EXTT1=
EXTT2=
EXTT3=
EXTT4=
EXTT5=
EXTT6=
EXTT7=
EXTT8=
EXTT9=
PLAYORDER=
